<?xml version="1.0" encoding="UTF-8" standalone="no"?>
<svg width="387px" height="205px" viewBox="0 0 387 205" version="1.1" xmlns="http://www.w3.org/2000/svg" xmlns:xlink="http://www.w3.org/1999/xlink">
    <!-- Generator: Sketch 43.2 (39069) - http://www.bohemiancoding.com/sketch -->
    <title>Page 1</title>
    <desc>Created with Sketch.</desc>
    <defs>
        <polygon id="path-1" points="0 204.560223 386.707166 204.560223 386.707166 0 0 0"></polygon>
    </defs>
    <g id="Landing-SimpleRide" stroke="none" stroke-width="1" fill="none" fill-rule="evenodd">
        <g id="Page-1">
            <path d="M5.76830964,174.709876 C7.35650252,179.213004 10.8682117,183.798591 18.5599803,183.798591 C24.7468126,183.798591 29.1777904,180.213954 29.1777904,174.126943 C29.1777904,159.53644 1.75476365,163.288856 1.75476365,144.44489 C1.75476365,136.107459 8.10925772,129.519973 18.4761494,129.519973 C28.926872,129.519973 33.6087681,136.773996 35.0292993,140.692473 L29.3443037,143.027068 C28.0070292,140.110113 24.8300693,135.690588 18.3923185,135.690588 C11.955142,135.690588 8.52726365,139.609066 8.52726365,144.44489 C8.52726365,157.784205 36.0329728,155.033311 36.0329728,173.710644 C36.0329728,182.881244 29.261047,190.051663 18.3084877,190.051663 C6.93907077,190.051663 1.83916869,182.799359 5.74183976e-05,177.212823 L5.76830964,174.709876 Z" id="Fill-1" fill="#FEFEFE"></path>
            <mask id="mask-2" fill="white">
                <use xlink:href="#path-1"></use>
            </mask>
            <g id="Clip-4"></g>
            <path d="M43.4680237,188.968198 L50.0722878,188.968198 L50.0722878,145.612416 L43.4680237,145.612416 L43.4680237,188.968198 Z M46.7288145,129.936215 C49.320681,129.936215 51.327454,131.938687 51.327454,134.439344 C51.327454,137.024176 49.320681,139.02493 46.7288145,139.02493 C44.2213531,139.02493 42.2145801,137.024176 42.2145801,134.439344 C42.2145801,131.938687 44.2213531,129.936215 46.7288145,129.936215 L46.7288145,129.936215 Z" id="Fill-3" fill="#FEFEFE" mask="url(#mask-2)"></path>
            <path d="M118.878591,188.968256 L112.273179,188.968256 L112.273179,162.870267 C112.273179,154.700616 108.929131,150.531901 102.49138,150.531901 C96.3889531,150.531901 91.7897395,154.866677 91.7897395,162.954443 L91.7897395,188.968256 L85.1854754,188.968256 L85.1854754,161.620797 C85.1854754,154.700616 81.3395911,150.531901 75.2371638,150.531901 C69.4677632,150.531901 64.7020362,155.367725 64.7020362,162.704205 L64.7020362,188.968256 L58.0977721,188.968256 L58.0977721,145.612473 L64.6187795,145.612473 L64.6187795,151.865546 C66.2913774,148.11313 70.8894427,144.529066 76.9086134,144.529066 C83.4296208,144.529066 88.0282602,147.696831 90.0350332,152.447906 C92.6263255,147.279959 97.8100585,144.529066 103.996891,144.529066 C113.694858,144.529066 118.878591,151.365071 118.878591,160.870085 L118.878591,188.968256 Z" id="Fill-5" fill="#FEFEFE" mask="url(#mask-2)"></path>
            <path d="M147.796735,184.048599 C156.323942,184.048599 162.510774,177.128418 162.510774,167.207105 C162.510774,157.035554 155.989192,150.531672 147.629074,150.531672 C138.600031,150.531672 132.915035,158.118962 132.915035,167.207105 C132.915035,177.879703 139.60313,184.048599 147.796735,184.048599 L147.796735,184.048599 Z M126.560541,145.612244 L132.915035,145.612244 L132.915035,152.44825 C134.001391,150.864367 138.600031,144.528837 148.046505,144.528837 C160.420744,144.528837 169.2827,153.949675 169.2827,167.207105 C169.2827,180.630596 160.838176,190.051434 148.548916,190.051434 C139.435468,190.051434 134.503228,184.214661 133.165379,181.964242 L133.165379,204.560052 L126.560541,204.560052 L126.560541,145.612244 Z" id="Fill-6" fill="#FEFEFE" mask="url(#mask-2)"></path>
            <polygon id="Fill-7" fill="#FEFEFE" mask="url(#mask-2)" points="174.460059 188.968198 181.064323 188.968198 181.064323 128.686746 174.460059 128.686746"></polygon>
            <path d="M222.865204,163.789216 C222.445476,154.782959 216.175386,150.197373 208.985455,150.197373 C201.879928,150.197373 195.525434,155.617848 195.023597,163.789216 L222.865204,163.789216 Z M208.985455,144.528951 C221.777125,144.528951 229.635407,153.699552 229.635407,166.706744 C229.635407,166.956982 229.635407,167.873756 229.553299,168.706926 L194.689422,168.706926 C194.773827,178.380292 201.293686,184.214775 210.322729,184.214775 C217.681471,184.214775 221.777125,180.380473 223.867155,177.462946 L228.216024,180.630711 C225.790671,184.71525 220.104527,190.051549 210.240621,190.051549 C197.031519,190.051549 187.91807,180.796772 187.91807,167.457457 C187.91807,153.615376 197.44895,144.528951 208.985455,144.528951 L208.985455,144.528951 Z" id="Fill-8" fill="#FEFEFE" mask="url(#mask-2)"></path>
            <path d="M253.792935,157.702205 C260.647543,157.702205 264.912008,154.532722 264.912008,146.861828 C264.912008,140.692359 261.651217,136.60782 253.373206,136.60782 L245.683735,136.60782 L245.683735,157.702205 L253.792935,157.702205 Z M238.911235,130.604985 L253.792935,130.604985 C265.747445,130.604985 272.017534,136.60782 272.017534,146.77937 C272.017534,153.699552 268.59023,160.0368 261.81773,162.203616 L276.366404,188.968141 L268.841149,188.968141 L255.632046,163.620865 L245.683735,163.620865 L245.683735,188.968141 L238.911235,188.968141 L238.911235,130.604985 Z" id="Fill-9" fill="#FEFEFE" mask="url(#mask-2)"></path>
            <path d="M282.044337,188.968198 L288.648027,188.968198 L288.648027,145.612416 L282.044337,145.612416 L282.044337,188.968198 Z M285.305128,129.936215 C287.895272,129.936215 289.902619,131.938687 289.902619,134.439344 C289.902619,137.024176 287.895272,139.02493 285.305128,139.02493 C282.795369,139.02493 280.789745,137.024176 280.789745,134.439344 C280.789745,131.938687 282.795369,129.936215 285.305128,129.936215 L285.305128,129.936215 Z" id="Fill-10" fill="#FEFEFE" mask="url(#mask-2)"></path>
            <path d="M316.905228,150.531901 C308.376299,150.531901 302.190615,157.533968 302.190615,167.457571 C302.190615,177.544946 308.627218,184.132432 316.987336,184.132432 C326.100784,184.132432 331.702523,176.545714 331.702523,167.457571 C331.702523,156.700797 325.014428,150.531901 316.905228,150.531901 L316.905228,150.531901 Z M338.141422,188.968256 L331.702523,188.968256 L331.702523,182.130532 C330.616167,183.716133 326.100784,190.051663 316.654309,190.051663 C304.19624,190.051663 295.418115,180.630825 295.418115,167.373395 C295.418115,154.03408 303.778808,144.529066 316.152473,144.529066 C325.181516,144.529066 330.198735,150.363549 331.451605,152.616258 L331.451605,128.686803 L338.141422,128.686803 L338.141422,188.968256 Z" id="Fill-11" fill="#FEFEFE" mask="url(#mask-2)"></path>
            <path d="M379.93702,163.789216 C379.517292,154.782959 373.247203,150.197373 366.057271,150.197373 C358.951744,150.197373 352.59725,155.617848 352.095414,163.789216 L379.93702,163.789216 Z M366.057271,144.528951 C378.848942,144.528951 386.707224,153.699552 386.707224,166.706744 C386.707224,166.956982 386.707224,167.873756 386.625115,168.706926 L351.762387,168.706926 C351.844495,178.380292 358.365503,184.214775 367.394546,184.214775 C374.753287,184.214775 378.848942,180.380473 380.938971,177.462946 L385.287841,180.630711 C382.862488,184.71525 377.176344,190.051549 367.312437,190.051549 C354.103335,190.051549 344.989887,180.796772 344.989887,167.457457 C344.989887,153.615376 354.520767,144.528951 366.057271,144.528951 L366.057271,144.528951 Z" id="Fill-12" fill="#FEFEFE" mask="url(#mask-2)"></path>
            <path d="M224.641098,68.0145335 L198.828083,80.5178156 C198.336007,80.7560279 197.815796,80.8688352 197.303624,80.8688352 C196.005394,80.8688352 194.760564,80.1467542 194.154799,78.9047291 C193.311897,77.1719637 194.035943,75.0853156 195.77285,74.2441285 L221.585291,61.7402737 C222.84505,61.131 223.61216,59.933067 223.639147,58.5370056 C223.664985,57.1415168 222.94381,55.917243 221.709314,55.2598687 L195.655142,41.4023268 C193.950964,40.4958603 193.306155,38.3840168 194.215089,36.6844637 C195.12517,34.9849106 197.242187,34.3412793 198.946365,35.2488911 L225.000537,49.1058603 C228.548994,50.9932346 230.706203,54.6586117 230.631559,58.6698547 C230.555193,62.6810978 228.260179,66.2617263 224.641098,68.0145335 M164.823185,39.2761676 L190.877357,53.1331369 C192.580961,54.0396034 193.22577,56.1520196 192.316836,57.8515726 C191.687531,59.0283184 190.478874,59.6977179 189.228301,59.6977179 C188.673065,59.6977179 188.109791,59.566014 187.585561,59.2871453 L161.531963,45.430176 C157.981783,43.5416564 155.824574,39.876852 155.901515,35.8656089 C155.976733,31.8543659 158.27232,28.2743101 161.889679,26.5220754 L187.703842,14.017648 C189.441897,13.1758883 191.532501,13.8985419 192.377126,15.6313073 C193.220028,17.3640726 192.495982,19.450148 190.759075,20.2919078 L164.945486,32.7963352 C163.686875,33.4061816 162.919765,34.6029693 162.892779,35.9978855 C162.865792,37.3933743 163.588115,38.6187933 164.823185,39.2761676 M229.380412,-0.000229050279 L157.151513,-0.000229050279 C150.213074,-0.000229050279 144.588368,5.60978492 144.588368,12.5293939 L144.588368,84.5616983 C144.588368,91.4818799 150.213074,97.0913212 157.151513,97.0913212 L229.380412,97.0913212 C236.318851,97.0913212 241.943558,91.4818799 241.943558,84.5616983 L241.943558,12.5293939 C241.943558,5.60978492 236.318851,-0.000229050279 229.380412,-0.000229050279" id="Fill-13" fill="#FEFEFE" mask="url(#mask-2)"></path>
        </g>
    </g>
</svg>