<?xml version="1.0" encoding="UTF-8" standalone="no"?>
<svg width="167px" height="30px" viewBox="0 0 167 30" version="1.1" xmlns="http://www.w3.org/2000/svg" xmlns:xlink="http://www.w3.org/1999/xlink">
    <!-- Generator: Sketch 43.2 (39069) - http://www.bohemiancoding.com/sketch -->
    <title>z</title>
    <desc>Created with Sketch.</desc>
    <defs>
        <polygon id="path-1" points="14.7969545 0.0651136364 0 0.0651136364 0 29.6590909 14.7969545 29.6590909 29.5939091 29.6590909 29.5939091 0.0651136364"></polygon>
        <polygon id="path-3" points="0 29.9349886 166.168977 29.9349886 166.168977 0.341011364 0 0.341011364"></polygon>
    </defs>
    <g id="Landing-SimpleRide" stroke="none" stroke-width="1" fill="none" fill-rule="evenodd">
        <g id="z">
            <g id="Group-3" transform="translate(0.000000, 0.275898)">
                <mask id="mask-2" fill="white">
                    <use xlink:href="#path-1"></use>
                </mask>
                <g id="Clip-2"></g>
                <path d="M24.3347045,20.7961364 L16.4876591,24.6075 C16.3383409,24.6801136 16.1798182,24.7145455 16.0240227,24.7145455 C15.6299318,24.7145455 15.2508409,24.4943182 15.0670909,24.1155682 C14.8107273,23.5875 15.0309545,22.9517045 15.5590227,22.695 L23.4057273,18.8839773 C23.7882273,18.6981818 24.02175,18.3330682 24.0295909,17.9076136 C24.0377727,17.4825 23.8182273,17.1088636 23.4432273,16.90875 L15.5232273,12.6848864 C15.0053864,12.4084091 14.8093636,11.7647727 15.0855,11.2465909 C15.3616364,10.72875 16.0056136,10.5323864 16.5234545,10.8092045 L24.4431136,15.0330682 C25.5220909,15.6081818 26.1783409,16.7253409 26.1551591,17.9478409 C26.1319773,19.1703409 25.4348182,20.2619318 24.3347045,20.7961364 M6.15095455,12.0368182 L14.0706136,16.2606818 C14.5884545,16.5368182 14.7844773,17.1807955 14.5083409,17.6986364 C14.3170909,18.0572727 13.9495909,18.2614773 13.5694773,18.2614773 C13.4007273,18.2614773 13.2295909,18.22125 13.0703864,18.1363636 L5.15072727,13.9125 C4.07175,13.3370455 3.41584091,12.2198864 3.43868182,10.9973864 C3.46186364,9.77488636 4.15936364,8.68363636 5.25947727,8.14909091 L13.1058409,4.33806818 C13.6339091,4.08170455 14.2703864,4.30159091 14.5264091,4.82965909 C14.7827727,5.35772727 14.5628864,5.99386364 14.0348182,6.25022727 L6.18845455,10.0615909 C5.80527273,10.2473864 5.57243182,10.6121591 5.56390909,11.0376136 C5.55606818,11.4630682 5.77561364,11.8363636 6.15095455,12.0368182 M25.7750455,0.0651136364 L3.81913636,0.0651136364 C1.70993182,0.0651136364 -6.81818182e-05,1.77477273 -6.81818182e-05,3.88397727 L-6.81818182e-05,25.8402273 C-6.81818182e-05,27.9494318 1.70993182,29.6590909 3.81913636,29.6590909 L25.7750455,29.6590909 C27.88425,29.6590909 29.5939091,27.9494318 29.5939091,25.8402273 L29.5939091,3.88397727 C29.5939091,1.77477273 27.88425,0.0651136364 25.7750455,0.0651136364" id="Fill-1" fill="#FFFFFF" mask="url(#mask-2)"></path>
            </g>
            <path d="M42.6871705,19.4457955 C43.1559205,20.7777273 44.1916023,22.1342045 46.4606932,22.1342045 C48.2859205,22.1342045 49.5933068,21.0736364 49.5933068,19.2732955 C49.5933068,14.9570455 41.5031932,16.0667045 41.5031932,10.4925 C41.5031932,8.02636364 43.3778523,6.07772727 46.4361477,6.07772727 C49.5193295,6.07772727 50.9003523,8.22340909 51.3196705,9.38284091 L49.6423977,10.0735227 C49.2479659,9.21 48.3104659,7.90295455 46.4116023,7.90295455 C44.5123977,7.90295455 43.5009205,9.06204545 43.5009205,10.4925 C43.5009205,14.4388636 51.6155795,13.6251136 51.6155795,19.1498864 C51.6155795,21.8628409 49.6178523,23.9839773 46.3867159,23.9839773 C43.0325114,23.9839773 41.5280795,21.8382955 40.9853523,20.1855682 L42.6871705,19.4457955 Z" id="Fill-4" fill="#FFFFFF"></path>
            <mask id="mask-4" fill="white">
                <use xlink:href="#path-3"></use>
            </mask>
            <g id="Clip-7"></g>
            <path d="M55.0425,23.6632841 L56.9911364,23.6632841 L56.9911364,10.8379432 L55.0425,10.8379432 L55.0425,23.6632841 Z M56.0045455,6.20089773 C56.7692045,6.20089773 57.3610227,6.79305682 57.3610227,7.53282955 C57.3610227,8.29748864 56.7692045,8.88930682 56.0045455,8.88930682 C55.2644318,8.88930682 54.6726136,8.29748864 54.6726136,7.53282955 C54.6726136,6.79305682 55.2644318,6.20089773 56.0045455,6.20089773 L56.0045455,6.20089773 Z" id="Fill-6" fill="#FFFFFF" mask="url(#mask-4)"></path>
            <path d="M78.522375,23.6633864 L76.5737386,23.6633864 L76.5737386,15.9435 C76.5737386,13.5264545 75.5874886,12.2930455 73.6882841,12.2930455 C71.8876023,12.2930455 70.531125,13.5755455 70.531125,15.9680455 L70.531125,23.6633864 L68.5824886,23.6633864 L68.5824886,15.5736136 C68.5824886,13.5264545 67.4479432,12.2930455 65.6476023,12.2930455 C63.9457841,12.2930455 62.539875,13.7235 62.539875,15.8940682 L62.539875,23.6633864 L60.5915795,23.6633864 L60.5915795,10.8380455 L62.5153295,10.8380455 L62.5153295,12.6878182 C63.008625,11.5778182 64.3651023,10.51725 66.1408977,10.51725 C68.0646477,10.51725 69.421125,11.4544091 70.0132841,12.8603182 C70.7779432,11.3313409 72.3069205,10.51725 74.1321477,10.51725 C76.9930568,10.51725 78.522375,12.5398636 78.522375,15.3513409 L78.522375,23.6633864 Z" id="Fill-8" fill="#FFFFFF" mask="url(#mask-4)"></path>
            <path d="M88.2871705,22.2081818 C90.8030795,22.2081818 92.6279659,20.1610227 92.6279659,17.2261364 C92.6279659,14.2169318 90.7042159,12.2931818 88.2377386,12.2931818 C85.5742159,12.2931818 83.8969432,14.5377273 83.8969432,17.2261364 C83.8969432,20.3829545 85.870125,22.2081818 88.2871705,22.2081818 L88.2871705,22.2081818 Z M82.0222841,10.8378409 L83.8969432,10.8378409 L83.8969432,12.8604545 C84.2173977,12.3917045 85.5742159,10.5173864 88.3611477,10.5173864 C92.0116023,10.5173864 94.6260341,13.3043182 94.6260341,17.2261364 C94.6260341,21.1970455 92.1346705,23.9839773 88.5091023,23.9839773 C85.8206932,23.9839773 84.3656932,22.2576136 83.9709205,21.5914773 L83.9709205,28.2756818 L82.0222841,28.2756818 L82.0222841,10.8378409 Z" id="Fill-9" fill="#FFFFFF" mask="url(#mask-4)"></path>
            <polygon id="Fill-10" fill="#FFFFFF" mask="url(#mask-4)" points="97.3864773 23.6632841 99.3351136 23.6632841 99.3351136 5.83101136 97.3864773 5.83101136"></polygon>
            <path d="M112.899716,16.2147614 C112.776307,13.5508977 110.926534,12.1944205 108.805398,12.1944205 C106.708807,12.1944205 104.834489,13.7977159 104.686534,16.2147614 L112.899716,16.2147614 Z M108.805398,10.5171477 C112.57892,10.5171477 114.897443,13.2304432 114.897443,17.0779432 C114.897443,17.1519205 114.897443,17.4232841 114.872898,17.6701023 L104.58767,17.6701023 C104.612557,20.5310114 106.536307,22.257375 109.20017,22.257375 C111.370398,22.257375 112.57892,21.1228295 113.195625,20.2596477 L114.478125,21.1968068 C113.762898,22.4056705 112.085625,23.9840795 109.175284,23.9840795 C105.278352,23.9840795 102.589943,21.2462386 102.589943,17.299875 C102.589943,13.2055568 105.401761,10.5171477 108.805398,10.5171477 L108.805398,10.5171477 Z" id="Fill-11" fill="#FFFFFF" mask="url(#mask-4)"></path>
            <path d="M123.25667,14.4142841 C125.279284,14.4142841 126.536898,13.477125 126.536898,11.2080341 C126.536898,9.38280682 125.575193,8.17428409 123.133261,8.17428409 L120.86417,8.17428409 L120.86417,14.4142841 L123.25667,14.4142841 Z M118.866443,6.39848864 L123.25667,6.39848864 C126.783716,6.39848864 128.633489,8.17428409 128.633489,11.1831477 C128.633489,13.2303068 127.622352,15.1049659 125.624284,15.7462159 L129.915989,23.6634886 L127.69633,23.6634886 L123.799398,16.1655341 L120.86417,16.1655341 L120.86417,23.6634886 L118.866443,23.6634886 L118.866443,6.39848864 Z" id="Fill-12" fill="#FFFFFF" mask="url(#mask-4)"></path>
            <path d="M132.825341,23.6632841 L134.773977,23.6632841 L134.773977,10.8379432 L132.825341,10.8379432 L132.825341,23.6632841 Z M133.787045,6.20089773 C134.551705,6.20089773 135.143523,6.79305682 135.143523,7.53282955 C135.143523,8.29748864 134.551705,8.88930682 133.787045,8.88930682 C133.047273,8.88930682 132.455114,8.29748864 132.455114,7.53282955 C132.455114,6.79305682 133.047273,6.20089773 133.787045,6.20089773 L133.787045,6.20089773 Z" id="Fill-13" fill="#FFFFFF" mask="url(#mask-4)"></path>
            <path d="M144.342614,12.2931477 C141.826705,12.2931477 140.001818,14.3648523 140.001818,17.3000795 C140.001818,20.2843977 141.900682,22.2330341 144.367159,22.2330341 C147.055568,22.2330341 148.708295,19.9884886 148.708295,17.3000795 C148.708295,14.118375 146.735114,12.2931477 144.342614,12.2931477 L144.342614,12.2931477 Z M150.6075,23.6634886 L148.708295,23.6634886 L148.708295,21.640875 C148.3875,22.109625 147.055568,23.9839432 144.268636,23.9839432 C140.593636,23.9839432 138.00375,21.1970114 138.00375,17.2751932 C138.00375,13.3291705 140.470227,10.5173523 144.120682,10.5173523 C146.784545,10.5173523 148.264091,12.2437159 148.634318,12.9098523 L148.634318,5.83121591 L150.6075,5.83121591 L150.6075,23.6634886 Z" id="Fill-14" fill="#FFFFFF" mask="url(#mask-4)"></path>
            <path d="M164.17108,16.2147614 C164.04767,13.5508977 162.197898,12.1944205 160.076761,12.1944205 C157.98017,12.1944205 156.105852,13.7977159 155.957898,16.2147614 L164.17108,16.2147614 Z M160.076761,10.5171477 C163.850284,10.5171477 166.168807,13.2304432 166.168807,17.0779432 C166.168807,17.1519205 166.168807,17.4232841 166.144261,17.6701023 L155.859034,17.6701023 C155.88392,20.5310114 157.80767,22.257375 160.471534,22.257375 C162.641761,22.257375 163.850284,21.1228295 164.466989,20.2596477 L165.749489,21.1968068 C165.034261,22.4056705 163.356989,23.9840795 160.446648,23.9840795 C156.549716,23.9840795 153.861307,21.2462386 153.861307,17.299875 C153.861307,13.2055568 156.673125,10.5171477 160.076761,10.5171477 L160.076761,10.5171477 Z" id="Fill-15" fill="#FFFFFF" mask="url(#mask-4)"></path>
        </g>
    </g>
</svg>