<?xml version="1.0" encoding="UTF-8" standalone="no"?>
<svg width="255px" height="165px" viewBox="0 0 255 165" version="1.1" xmlns="http://www.w3.org/2000/svg" xmlns:xlink="http://www.w3.org/1999/xlink">
    <!-- Generator: Sketch 43.2 (39069) - http://www.bohemiancoding.com/sketch -->
    <title>Artboard Copy</title>
    <desc>Created with Sketch.</desc>
    <defs></defs>
    <g id="Landing-SimpleRide" stroke="none" stroke-width="1" fill="none" fill-rule="evenodd">
        <g id="Artboard-Copy" stroke="#FFD345" fill="#FFD345">
            <g id="Group-7" transform="translate(49.000000, 70.000000)">
                <polygon id="Star" points="14.1603089 21.5373686 5.83708814 25.9743105 7.42668185 16.5767167 0.693054846 9.92130378 9.9986985 8.55021332 14.1603089 0 18.3219192 8.55021332 27.6275629 9.92130378 20.8939359 16.5767167 22.4835296 25.9743105"></polygon>
                <polygon id="Star-Copy" points="111.86644 21.5373686 103.543219 25.9743105 105.132813 16.5767167 98.3991859 9.92130378 107.70483 8.55021332 111.86644 0 116.02805 8.55021332 125.333694 9.92130378 118.600067 16.5767167 120.189661 25.9743105"></polygon>
                <polygon id="Star" points="46.7290192 21.5373686 38.4057985 25.9743105 39.9953922 16.5767167 33.2617652 9.92130378 42.5674089 8.55021332 46.7290192 0 50.8906296 8.55021332 60.1962732 9.92130378 53.4626462 16.5767167 55.0522399 25.9743105"></polygon>
                <polygon id="Star" points="79.2977296 21.5373686 70.9745089 25.9743105 72.5641026 16.5767167 65.8304756 9.92130378 75.1361192 8.55021332 79.2977296 0 83.4593399 8.55021332 92.7649836 9.92130378 86.0313566 16.5767167 87.6209503 25.9743105"></polygon>
                <polygon id="Star-Copy-2" points="144.43515 21.5373686 136.11193 25.9743105 137.701523 16.5767167 130.967896 9.92130378 140.27354 8.55021332 144.43515 0 148.596761 8.55021332 157.902404 9.92130378 151.168777 16.5767167 152.758371 25.9743105"></polygon>
            </g>
        </g>
    </g>
</svg>