<?xml version="1.0" encoding="UTF-8" standalone="no"?>
<svg width="255px" height="165px" viewBox="0 0 255 165" version="1.1" xmlns="http://www.w3.org/2000/svg" xmlns:xlink="http://www.w3.org/1999/xlink">
    <!-- Generator: Sketch 43.2 (39069) - http://www.bohemiancoding.com/sketch -->
    <title>Artboard Copy 2</title>
    <desc>Created with Sketch.</desc>
    <defs></defs>
    <g id="Landing-SimpleRide" stroke="none" stroke-width="1" fill="none" fill-rule="evenodd">
        <g id="Artboard-Copy-2">
            <g id="Group" transform="translate(81.000000, 36.000000)">
                <g id="Group-3" fill="#FFFFFF">
                    <path d="M58.1122005,47.0769231 L18.3964833,47.0769231 C8.23606228,47.0769231 0,55.3997522 0,65.6660022 L0,89.1242048 L76.5086839,89.1242048 L76.5086839,65.6660022 C76.5086839,55.3997522 68.2720851,47.0769231 58.1122005,47.0769231" id="Fill-1"></path>
                    <path d="M59.0662301,20.3693287 C59.0662301,31.6189443 50.0410037,40.7386573 38.9079419,40.7386573 C27.7748801,40.7386573 18.7496537,31.6189443 18.7496537,20.3693287 C18.7496537,9.11971301 27.7748801,0 38.9079419,0 C50.0410037,0 59.0662301,9.11971301 59.0662301,20.3693287" id="Fill-3"></path>
                </g>
                <g id="Group-4" transform="translate(51.561548, 59.630769)">
                    <path d="M41.7523539,20.9664923 C41.7523539,32.5458462 32.4056515,41.9329846 20.8761769,41.9329846 C9.34670237,41.9329846 0,32.5458462 0,20.9664923 C0,9.38713846 9.34670237,0 20.8761769,0 C32.4056515,0 41.7523539,9.38713846 41.7523539,20.9664923" id="Fill-1" fill="#82E43E"></path>
                    <path d="M32.4224481,9.76257692 C31.9615191,9.29965385 31.2060643,9.29965385 30.744354,9.76257692 L15.8641601,24.7087154 C15.4024499,25.1716385 14.6469951,25.1716385 14.1860661,24.7087154 L10.5212901,21.0280846 C10.0595798,20.5651615 9.30412503,20.5651615 8.84319605,21.0280846 L6.59558131,23.2869923 C6.13465232,23.7499154 6.13465232,24.5086385 6.59558131,24.9715615 L14.1860661,32.5941 C14.6469951,33.0570231 15.4024499,33.0570231 15.8641601,32.5941 L34.6700628,13.7052692 C35.131773,13.2415615 35.131773,12.4836231 34.6700628,12.0199154 L32.4224481,9.76257692 Z" id="Fill-4" fill="#FFFFFF"></path>
                </g>
            </g>
        </g>
    </g>
</svg>