<?xml version="1.0" encoding="UTF-8" standalone="no"?>
<svg width="255px" height="165px" viewBox="0 0 255 165" version="1.1" xmlns="http://www.w3.org/2000/svg" xmlns:xlink="http://www.w3.org/1999/xlink">
    <!-- Generator: Sketch 43.2 (39069) - http://www.bohemiancoding.com/sketch -->
    <title>Artboard Copy 3</title>
    <desc>Created with Sketch.</desc>
    <defs></defs>
    <g id="Landing-SimpleRide" stroke="none" stroke-width="1" fill="none" fill-rule="evenodd">
        <g id="Artboard-Copy-3" fill="#FFFFFF">
            <g id="Group" transform="translate(143.010330, 41.384459)">
                <path d="M61.3366499,49.8282548 C61.3366499,56.3160036 51.6153766,70.8765762 33.0264836,75.9389863 C14.4366473,70.8765762 4.71631731,56.3160036 4.71631731,49.8282548 L4.71631731,11.9027128 C21.4045345,13.5331567 29.6250756,8.5652651 33.0264836,5.48301731 C36.4288349,8.5652651 44.6399433,13.535047 61.3366499,11.9027128 L61.3366499,49.8282548 Z M55.7978068,7.9225394 C47.1961873,7.9225394 39.2906963,4.95654935 33.0264836,0 C26.7613277,4.95654935 18.8558366,7.9225394 10.2542171,7.9225394 C6.69434079,7.9225394 3.25614547,7.40552329 0,6.46033844 L0,49.8282548 C0,54.6751627 3.30991149,61.1818152 8.63935005,66.8094458 C14.8677187,73.3888776 23.3193593,78.3114002 32.4369439,80.6715268 L33.0264836,80.8237016 L33.6160233,80.6715268 C53.7131946,75.4692294 66.0529672,59.201653 66.0529672,49.8282548 L66.0529672,6.46033844 C62.7968217,7.40646847 59.3586264,7.9225394 55.7978068,7.9225394 L55.7978068,7.9225394 Z" id="Fill-3"></path>
                <g id="Group-3" transform="translate(19.498092, 25.432293)">
                    <path d="M19.8336461,16.4070898 L6.27870457,16.4070898 C2.81096126,16.4070898 0,19.307734 0,22.8856927 L0,31.0612659 L26.1123507,31.0612659 L26.1123507,22.8856927 C26.1123507,19.307734 23.3012063,16.4070898 19.8336461,16.4070898" id="Fill-1"></path>
                    <path d="M20.1592556,7.09904943 C20.1592556,11.0197274 17.0789533,14.1980989 13.2792485,14.1980989 C9.47954366,14.1980989 6.39924134,11.0197274 6.39924134,7.09904943 C6.39924134,3.17837148 9.47954366,0 13.2792485,0 C17.0789533,0 20.1592556,3.17837148 20.1592556,7.09904943" id="Fill-3"></path>
                </g>
            </g>
            <g id="Group-2" transform="translate(45.865707, 42.232202)">
                <path d="M61.3366499,49.8282548 C61.3366499,56.3160036 51.6153766,70.8765762 33.0264836,75.9389863 C14.4366473,70.8765762 4.71631731,56.3160036 4.71631731,49.8282548 L4.71631731,11.9027128 C21.4045345,13.5331567 29.6250756,8.5652651 33.0264836,5.48301731 C36.4288349,8.5652651 44.6399433,13.535047 61.3366499,11.9027128 L61.3366499,49.8282548 Z M55.7978068,7.9225394 C47.1961873,7.9225394 39.2906963,4.95654935 33.0264836,0 C26.7613277,4.95654935 18.8558366,7.9225394 10.2542171,7.9225394 C6.69434079,7.9225394 3.25614547,7.40552329 0,6.46033844 L0,49.8282548 C0,54.6751627 3.30991149,61.1818152 8.63935005,66.8094458 C14.8677187,73.3888776 23.3193593,78.3114002 32.4369439,80.6715268 L33.0264836,80.8237016 L33.6160233,80.6715268 C53.7131946,75.4692294 66.0529672,59.201653 66.0529672,49.8282548 L66.0529672,6.46033844 C62.7968217,7.40646847 59.3586264,7.9225394 55.7978068,7.9225394 L55.7978068,7.9225394 Z" id="Fill-3"></path>
                <path d="M45.8723041,43.614902 C44.4309975,43.6186827 43.2717267,42.4230239 43.2632374,40.9513711 C43.2717267,39.4702664 44.4309975,38.2727172 45.8723041,38.2850046 C47.2890858,38.2727172 48.4474134,39.4702664 48.456846,40.9513711 C48.4474134,42.4230239 47.2890858,43.6186827 45.8723041,43.614902 L45.8723041,43.614902 Z M33.0769352,35.244345 L33.0524104,35.244345 L20.9597728,35.244345 L23.2679385,29.0089605 C23.5462012,28.1242675 23.9782159,27.4909936 24.9997702,27.4749255 L33.0524104,27.4749255 L33.0769352,27.4749255 L41.1559868,27.4749255 C42.1615056,27.4909936 42.5944636,28.1233223 42.8868752,29.0089605 L45.1950409,35.244345 L33.0769352,35.244345 Z M20.2825096,43.614902 C18.851579,43.6186827 17.6923082,42.4230239 17.698911,40.9513711 C17.6923082,39.4702664 18.851579,38.2727172 20.2825096,38.2850046 C21.7096673,38.2727172 22.8679948,39.4702664 22.8661083,40.9513711 C22.8679948,42.4230239 21.708724,43.6186827 20.2825096,43.614902 L20.2825096,43.614902 Z M48.3549735,35.3190146 L45.2950269,27.4002559 C44.7224659,25.8851246 43.4726419,24.5949473 41.1050506,24.5845502 L36.7896202,24.5845502 L29.4142432,24.5845502 L25.0233518,24.5845502 C22.6680229,24.5949473 21.4172556,25.8851246 20.8343188,27.4002559 L17.7734288,35.3190146 C16.5585055,35.4759152 14.4078648,36.9069251 14.4116379,39.6167701 L14.4116379,49.6990568 L17.39801,49.6990568 L17.39801,52.9174113 C17.3904639,56.8843521 22.9934488,56.8370928 22.9915623,52.9174113 L22.9915623,49.6990568 L33.0769352,49.6990568 L43.1377833,49.6990568 L43.1377833,52.9174113 C43.1500458,56.8370928 48.7530307,56.8843521 48.7568038,52.9174113 L48.7568038,49.6990568 L51.7431759,49.6990568 L51.7431759,39.6167701 C51.7337433,36.9069251 49.581216,35.4759152 48.3549735,35.3190146 L48.3549735,35.3190146 Z" id="Fill-1"></path>
            </g>
        </g>
    </g>
</svg>