<?xml version="1.0" encoding="UTF-8" standalone="no"?>
<svg width="255px" height="165px" viewBox="0 0 255 165" version="1.1" xmlns="http://www.w3.org/2000/svg" xmlns:xlink="http://www.w3.org/1999/xlink">
    <!-- Generator: Sketch 43.2 (39069) - http://www.bohemiancoding.com/sketch -->
    <title>Artboard Copy 4</title>
    <desc>Created with Sketch.</desc>
    <defs>
        <polygon id="path-1" points="0.76884589 0.875192308 18.2720822 0.875192308 18.2720822 28.0559846 0.76884589 28.0559846 0.76884589 0.875192308"></polygon>
        <polygon id="path-3" points="1.38261768e-15 15.7462923 1.38261768e-15 0.473792308 15.2579795 0.473792308 15.2579795 15.7462923 0 15.7462923"></polygon>
        <polygon id="path-5" points="15.8907945 21.0769231 0.769476027 21.0769231 0.769476027 0.3694 15.8907945 0.3694"></polygon>
    </defs>
    <g id="Landing-SimpleRide" stroke="none" stroke-width="1" fill="none" fill-rule="evenodd">
        <g id="Artboard-Copy-4">
            <g id="Page-1" transform="translate(60.000000, 41.000000)">
                <g id="Group-3" transform="translate(39.383562, 0.701888)">
                    <mask id="mask-2" fill="white">
                        <use xlink:href="#path-1"></use>
                    </mask>
                    <g id="Clip-2"></g>
                    <path d="M14.0454384,28.0559846 C14.2675616,27.9298308 14.4833836,27.7879077 14.7086575,27.6806769 L18.2720822,18.4730231 C15.5766712,12.3861 11.7674932,6.78171538 6.92331507,1.9311 C5.51338356,0.522907692 3.23386301,0.522907692 1.82393151,1.9311 C0.417150685,3.34086923 0.417150685,5.62583077 1.82393151,7.0356 C7.74564384,12.9616769 11.8982466,20.1824077 14.0454384,28.0559846" id="Fill-1" fill="#FFFFFF" mask="url(#mask-2)"></path>
                </g>
                <g id="Group-6" transform="translate(0.000000, 33.240350)">
                    <mask id="mask-4" fill="white">
                        <use xlink:href="#path-3"></use>
                    </mask>
                    <g id="Clip-5"></g>
                    <path d="M7.62859589,0.473792308 C3.41613014,0.473792308 -0.000787671233,3.89256154 -0.000787671233,8.11083077 C-0.000787671233,12.3275231 3.41613014,15.7462923 7.62859589,15.7462923 C11.8410616,15.7462923 15.2579795,12.3275231 15.2579795,8.11083077 C15.2579795,3.89256154 11.8410616,0.473792308 7.62859589,0.473792308" id="Fill-4" fill="#FFFFFF" mask="url(#mask-4)"></path>
                </g>
                <path d="M35.4685205,13.4836385 C34.058589,12.0738692 31.7790685,12.0738692 30.3707123,13.4836385 C28.9623562,14.8934077 28.9623562,17.1783692 30.3707123,18.5865615 C36.4436575,24.6671769 39.7896849,32.7520615 39.7896849,41.3510231 C39.7896849,49.9499846 36.4436575,58.0348692 30.3707123,64.1139077 C28.9623562,65.5236769 28.9623562,67.8086385 30.3707123,69.2184077 C31.0748904,69.9232923 31.9964658,70.2749462 32.9196164,70.2749462 C33.8427671,70.2749462 34.7643425,69.9232923 35.4685205,69.2184077 C42.904137,61.7753308 46.9984521,51.8785615 46.9984521,41.3510231 C46.9984521,30.8234846 42.904137,20.9267154 35.4685205,13.4836385" id="Fill-7" fill="#FFFFFF"></path>
                <path d="M24.6287466,24.3327115 C23.2188151,22.9229423 20.9392945,22.9229423 19.5309384,24.3327115 C18.1225822,25.7424808 18.1225822,28.0274423 19.5309384,29.4356346 C22.7099795,32.6178654 24.4617603,36.84875 24.4617603,41.3508654 C24.4617603,45.8514038 22.7099795,50.0822885 19.5309384,53.2645192 C18.1225822,54.6742885 18.1225822,56.95925 19.5309384,58.3674423 C20.2351164,59.0723269 21.1566918,59.4255577 22.0798425,59.4255577 C23.0029932,59.4255577 23.9245685,59.0723269 24.6287466,58.3674423 C29.1704589,53.82275 31.6705274,47.7799808 31.6705274,41.3508654 C31.6705274,34.92175 29.1704589,28.8789808 24.6287466,24.3327115" id="Fill-9" fill="#FFFFFF"></path>
                <g id="Group-13" transform="translate(39.383562, 60.048042)">
                    <mask id="mask-6" fill="white">
                        <use xlink:href="#path-5"></use>
                    </mask>
                    <g id="Clip-12"></g>
                    <path d="M15.6781233,8.03797692 C13.9594247,6.3144 13.0173699,3.90801538 13.0205205,1.26036154 L13.0205205,0.3694 L11.7602466,0.3694 C9.41613699,5.72620769 6.07956164,10.6556692 1.82456164,14.9165154 C0.417780822,16.3262846 0.417780822,18.6112462 1.82456164,20.0194385 C2.52873973,20.7243231 3.45031507,21.0775538 4.37346575,21.0775538 C5.29661644,21.0775538 6.21819178,20.7243231 6.92236986,20.0194385 C10.4826438,16.4555923 13.4757945,12.4817462 15.8907945,8.21301538 C15.8230548,8.14836154 15.7442877,8.10420769 15.6781233,8.03797692" id="Fill-11" fill="#FFFFFF" mask="url(#mask-6)"></path>
                </g>
                <path d="M104.426301,45.7966846 C102.019178,45.8029923 100.083082,43.8081846 100.068904,41.3529154 C100.083082,38.8818769 102.019178,36.8839154 104.426301,36.9044154 C106.792466,36.8839154 108.726986,38.8818769 108.74274,41.3529154 C108.726986,43.8081846 106.792466,45.8029923 104.426301,45.7966846 L104.426301,45.7966846 Z M83.0567808,31.8314538 L83.0158219,31.8314538 L62.8199315,31.8314538 L66.6747945,21.4284923 C67.1395205,19.9524923 67.8610274,18.8959538 69.5671233,18.8691462 L83.0158219,18.8691462 L83.0567808,18.8691462 L96.549589,18.8691462 C98.2289041,18.8959538 98.9519863,19.9509154 99.4403425,21.4284923 L103.295205,31.8314538 L83.0567808,31.8314538 Z M61.6888356,45.7966846 C59.2990411,45.8029923 57.3629452,43.8081846 57.3739726,41.3529154 C57.3629452,38.8818769 59.2990411,36.8839154 61.6888356,36.9044154 C64.0723288,36.8839154 66.0068493,38.8818769 66.0036986,41.3529154 C66.0068493,43.8081846 64.0707534,45.8029923 61.6888356,45.7966846 L61.6888356,45.7966846 Z M108.572603,31.9560308 L103.462192,18.7445692 C102.505959,16.2167615 100.41863,14.0642615 96.4645205,14.0469154 L89.2573288,14.0469154 L76.939726,14.0469154 L69.6065068,14.0469154 C65.6728767,14.0642615 63.5839726,16.2167615 62.610411,18.7445692 L57.4984247,31.9560308 C55.4693836,32.2178 51.8776027,34.6052615 51.8839041,39.1263 L51.8839041,55.9473385 L56.8714384,55.9473385 L56.8714384,61.3167615 C56.8588356,67.9351077 66.2163699,67.8562615 66.2132192,61.3167615 L66.2132192,55.9473385 L83.0567808,55.9473385 L99.8593836,55.9473385 L99.8593836,61.3167615 C99.879863,67.8562615 109.237397,67.9351077 109.243699,61.3167615 L109.243699,55.9473385 L114.231233,55.9473385 L114.231233,39.1263 C114.215479,34.6052615 110.620548,32.2178 108.572603,31.9560308 L108.572603,31.9560308 Z" id="Fill-14" fill="#FFFFFF"></path>
            </g>
        </g>
    </g>
</svg>