<?xml version="1.0" encoding="UTF-8" standalone="no"?>
<svg width="255px" height="165px" viewBox="0 0 255 165" version="1.1" xmlns="http://www.w3.org/2000/svg" xmlns:xlink="http://www.w3.org/1999/xlink">
    <!-- Generator: Sketch 43.2 (39069) - http://www.bohemiancoding.com/sketch -->
    <title>Artboard</title>
    <desc>Created with Sketch.</desc>
    <defs></defs>
    <g id="Landing-SimpleRide" stroke="none" stroke-width="1" fill="none" fill-rule="evenodd">
        <g id="Artboard">
            <g id="Group-6" transform="translate(45.000000, 60.000000)">
                <g id="Group-3" fill="#FFFFFF">
                    <path d="M30.2925301,24.4615385 L9.58965619,24.4615385 C4.29326651,24.4615385 0,28.7861457 0,34.1205698 L0,46.3096358 L39.8821863,46.3096358 L39.8821863,34.1205698 C39.8821863,28.7861457 35.5886401,24.4615385 30.2925301,24.4615385" id="Fill-1"></path>
                    <path d="M30.7898433,10.5840629 C30.7898433,16.4294515 26.085204,21.1681259 20.2817995,21.1681259 C14.478395,21.1681259 9.77375566,16.4294515 9.77375566,10.5840629 C9.77375566,4.73867441 14.478395,0 20.2817995,0 C26.085204,0 30.7898433,4.73867441 30.7898433,10.5840629" id="Fill-3"></path>
                </g>
                <g id="Group" transform="translate(64.343891, 0.000000)" fill="#FFFFFF">
                    <path d="M30.2925301,24.4615385 L9.58965619,24.4615385 C4.29326651,24.4615385 0,28.7861457 0,34.1205698 L0,46.3096358 L39.8821863,46.3096358 L39.8821863,34.1205698 C39.8821863,28.7861457 35.5886401,24.4615385 30.2925301,24.4615385" id="Fill-1-Copy"></path>
                    <path d="M30.7898433,10.5840629 C30.7898433,16.4294515 26.085204,21.1681259 20.2817995,21.1681259 C14.478395,21.1681259 9.77375566,16.4294515 9.77375566,10.5840629 C9.77375566,4.73867441 14.478395,0 20.2817995,0 C26.085204,0 30.7898433,4.73867441 30.7898433,10.5840629" id="Fill-3-Copy"></path>
                </g>
                <g id="Group-5" transform="translate(128.687783, 0.000000)" fill="#FFFFFF">
                    <path d="M30.2925301,24.4615385 L9.58965619,24.4615385 C4.29326651,24.4615385 0,28.7861457 0,34.1205698 L0,46.3096358 L39.8821863,46.3096358 L39.8821863,34.1205698 C39.8821863,28.7861457 35.5886401,24.4615385 30.2925301,24.4615385" id="Fill-1-Copy"></path>
                    <path d="M30.7898433,10.5840629 C30.7898433,16.4294515 26.085204,21.1681259 20.2817995,21.1681259 C14.478395,21.1681259 9.77375566,16.4294515 9.77375566,10.5840629 C9.77375566,4.73867441 14.478395,0 20.2817995,0 C26.085204,0 30.7898433,4.73867441 30.7898433,10.5840629" id="Fill-3-Copy"></path>
                </g>
                <g id="Group-4" transform="translate(26.877828, 30.984615)">
                    <path d="M21.7645249,10.8943538 C21.7645249,16.9110769 16.8923077,21.7887077 10.8822624,21.7887077 C4.87221719,21.7887077 0,16.9110769 0,10.8943538 C0,4.87763077 4.87221719,0 10.8822624,0 C16.8923077,0 21.7645249,4.87763077 21.7645249,10.8943538" id="Fill-1" fill="#82E43E"></path>
                    <path d="M16.9010633,5.07271154 C16.6607919,4.83217308 16.266991,4.83217308 16.0263122,5.07271154 L8.26961538,12.8388423 C8.02893665,13.0793808 7.63513575,13.0793808 7.39486425,12.8388423 L5.48450226,10.9263577 C5.24382353,10.6858192 4.85002262,10.6858192 4.60975113,10.9263577 L3.43812217,12.1001038 C3.19785068,12.3406423 3.19785068,12.7348808 3.43812217,12.9754192 L7.39486425,16.93615 C7.63513575,17.1766885 8.02893665,17.1766885 8.26961538,16.93615 L18.0726923,7.12136538 C18.313371,6.88041923 18.313371,6.48658846 18.0726923,6.24564231 L16.9010633,5.07271154 Z" id="Fill-4" fill="#FFFFFF"></path>
                </g>
                <g id="Group-4-Copy" transform="translate(158.009050, 30.984615)">
                    <path d="M21.7645249,10.8943538 C21.7645249,16.9110769 16.8923077,21.7887077 10.8822624,21.7887077 C4.87221719,21.7887077 0,16.9110769 0,10.8943538 C0,4.87763077 4.87221719,0 10.8822624,0 C16.8923077,0 21.7645249,4.87763077 21.7645249,10.8943538" id="Fill-1" fill="#82E43E"></path>
                    <path d="M16.9010633,5.07271154 C16.6607919,4.83217308 16.266991,4.83217308 16.0263122,5.07271154 L8.26961538,12.8388423 C8.02893665,13.0793808 7.63513575,13.0793808 7.39486425,12.8388423 L5.48450226,10.9263577 C5.24382353,10.6858192 4.85002262,10.6858192 4.60975113,10.9263577 L3.43812217,12.1001038 C3.19785068,12.3406423 3.19785068,12.7348808 3.43812217,12.9754192 L7.39486425,16.93615 C7.63513575,17.1766885 8.02893665,17.1766885 8.26961538,16.93615 L18.0726923,7.12136538 C18.313371,6.88041923 18.313371,6.48658846 18.0726923,6.24564231 L16.9010633,5.07271154 Z" id="Fill-4" fill="#FFFFFF"></path>
                </g>
                <g id="Group-2" transform="translate(93.665158, 30.984615)">
                    <path d="M21.7645249,10.8943538 C21.7645249,16.9110769 16.8923077,21.7887077 10.8822624,21.7887077 C4.87221719,21.7887077 0,16.9110769 0,10.8943538 C0,4.87763077 4.87221719,0 10.8822624,0 C16.8923077,0 21.7645249,4.87763077 21.7645249,10.8943538" id="Fill-1" fill="#ED1E28"></path>
                    <path d="M16.9218127,14.8920139 L13.0387811,11.0046678 L16.901858,7.13729855 C17.1445729,6.89879855 17.1482381,6.50456009 16.91041,6.26157547 L15.7501838,5.07722932 C15.5123557,4.83424471 15.1181476,4.83016778 14.8754326,5.06826009 L10.992401,8.95601394 L7.12932405,5.08864471 C6.89108876,4.84566009 6.49728785,4.84158317 6.25457292,5.08008317 L5.07154125,6.24159855 C4.82882631,6.47969086 4.82475392,6.87392932 5.06298921,7.11691394 L8.94602088,11.0046678 L5.08294396,14.872037 C4.84022903,15.1101293 4.83615663,15.5043678 5.07439193,15.7473524 L6.23461817,16.9321062 C6.47244622,17.1746832 6.86665437,17.1787601 7.1093693,16.9406678 L10.992401,13.0529139 L14.8554779,16.9202832 C15.0937132,17.1636755 15.4871069,17.1673447 15.730229,16.9288447 L16.9132607,15.7673293 C17.1559756,15.529237 17.1596408,15.1349986 16.9218127,14.8920139" id="Fill-4" fill="#FFFFFF"></path>
                </g>
            </g>
        </g>
    </g>
</svg>